<?xml version="1.0" standalone="no"?>
<!DOCTYPE svg PUBLIC "-//W3C//DTD SVG 20010904//EN"
 "http://www.w3.org/TR/2001/REC-SVG-20010904/DTD/svg10.dtd">
<svg version="1.0" xmlns="http://www.w3.org/2000/svg"
 width="1500.000000pt" height="1500.000000pt" viewBox="0 0 1500.000000 1500.000000"
 preserveAspectRatio="xMidYMid meet">

<g transform="translate(0.000000,1500.000000) scale(0.100000,-0.100000)"
fill="#000000" stroke="none">
<path d="M3987 14099 c-58 -14 -134 -56 -176 -98 -99 -99 -1211 -2029 -1211
-2101 0 -6 924 -11 2519 -12 l2518 -3 -315 -545 c-1589 -2752 -3263 -5659
-3872 -6725 -100 -176 -185 -322 -187 -325 -8 -8 -126 124 -180 202 -101 147
-139 275 -130 441 10 193 53 291 329 752 576 962 967 1635 2223 3820 351 611
664 1155 696 1210 32 55 95 172 141 260 l84 160 -2061 6 c-1938 6 -2063 5
-2117 -11 -74 -23 -150 -72 -192 -124 -18 -22 -160 -266 -316 -541 -586 -1035
-844 -1478 -1153 -1985 -247 -404 -278 -475 -278 -649 0 -166 33 -250 208
-526 239 -378 409 -668 833 -1422 91 -161 167 -293 170 -293 3 0 253 435 555
968 640 1126 1351 2374 1606 2817 98 171 181 318 184 326 5 14 -38 15 -392 14
-385 -2 -400 -3 -456 -24 -104 -40 -160 -105 -262 -298 -174 -334 -610 -1098
-1169 -2052 -34 -57 -65 -104 -71 -104 -14 1 -158 241 -232 390 -63 126 -66
135 -67 205 0 40 6 91 14 113 18 56 715 1273 1236 2160 67 115 111 162 180
196 l49 24 510 6 c672 8 1815 10 1815 3 0 -18 -226 -419 -585 -1039 -496 -856
-1295 -2240 -1767 -3060 -725 -1261 -698 -1209 -698 -1320 0 -29 6 -72 13 -96
27 -89 1233 -2196 1249 -2181 4 4 290 497 636 1097 346 600 1353 2343 2237
3875 885 1532 1911 3309 2281 3950 l672 1165 -2518 5 -2519 5 43 107 c109 266
170 359 268 407 36 18 93 35 133 41 45 6 1080 10 2884 10 2387 0 2812 -2 2808
-14 -6 -14 -288 -505 -917 -1591 -339 -586 -864 -1494 -1538 -2660 -926 -1604
-4228 -7311 -4288 -7413 l-43 -72 3362 0 c2846 0 3390 -3 3542 -15 232 -19
505 -19 610 0 120 21 214 72 305 164 95 96 159 198 306 493 63 128 176 337
249 463 74 127 249 430 389 675 l255 445 -2534 5 -2534 5 58 100 c31 55 118
206 193 335 74 129 932 1614 1905 3300 974 1686 1873 3243 1998 3460 125 217
233 401 240 408 10 11 18 3 45 -43 18 -32 72 -112 120 -179 107 -149 137 -207
157 -300 18 -86 11 -162 -23 -264 -33 -98 -65 -161 -209 -402 -728 -1220
-3265 -5613 -3265 -5653 0 -7 675 -8 2068 -4 1907 6 2071 8 2117 23 94 32 164
89 222 180 109 172 1680 2893 1716 2972 16 36 22 67 22 127 l0 80 -174 305
c-95 168 -347 604 -559 970 -212 366 -415 716 -450 778 l-65 113 -104 -183
c-583 -1019 -2245 -3959 -2241 -3963 2 -2 172 -4 378 -6 394 -3 421 0 498 43
47 27 125 101 162 153 15 22 113 195 217 385 185 334 879 1558 963 1696 52 86
139 204 150 204 13 0 115 -169 190 -315 82 -159 100 -234 80 -340 -11 -60 -49
-131 -360 -674 -599 -1046 -928 -1603 -973 -1649 -23 -24 -70 -56 -103 -73
l-62 -29 -1146 0 -1146 0 51 102 c50 100 249 449 787 1383 692 1201 2132 3682
2163 3725 9 14 27 55 39 90 27 79 24 192 -7 261 -11 24 -83 150 -160 279 -168
281 -300 508 -663 1140 -150 261 -309 526 -353 588 -44 62 -81 111 -82 110 -6
-7 -157 -268 -942 -1628 -462 -800 -1372 -2377 -2023 -3505 -651 -1127 -1556
-2696 -2011 -3485 l-828 -1435 2515 -3 c1382 -1 2514 -3 2514 -5 0 -1 -25 -68
-55 -147 -96 -250 -165 -354 -264 -401 -110 -51 18 -49 -3017 -47 l-2820 3
309 535 c170 294 602 1041 960 1660 357 619 1038 1796 1512 2615 1229 2124
2026 3503 2498 4320 333 577 910 1576 1418 2455 53 91 75 138 68 145 -13 13
-7507 17 -7562 4z"/>
</g>
</svg>
